<svg xmlns="http://www.w3.org/2000/svg" viewBox="0 0 64 64" role="img" aria-label="BitRetro">
  <defs>
    <radialGradient id="g" cx="50%" cy="35%" r="75%">
      <stop offset="0%" stop-color="#ffb84d"/>
      <stop offset="60%" stop-color="#f7931a"/>
      <stop offset="100%" stop-color="#b026ff"/>
    </radialGradient>
  </defs>
  <circle cx="32" cy="32" r="30" fill="url(#g)"/>
  <path fill="#fff" d="M43.6 28.3c.6-3.9-2.4-6-6.4-7.4l1.3-5.2-3.2-.8-1.3 5c-.8-.2-1.7-.4-2.6-.6l1.3-5.1-3.2-.8-1.3 5.2c-.7-.2-1.4-.3-2-.5l-4.4-1.1-.8 3.4s2.4.5 2.3.6c1.3.3 1.5 1.2 1.5 1.9l-1.5 6c.1 0 .2.1.3.1l-.3-.1-2.1 8.4c-.2.4-.6 1-1.5.8.1.1-2.3-.6-2.3-.6l-1.6 3.7 4.2 1c.8.2 1.5.4 2.3.6l-1.3 5.3 3.2.8 1.3-5.2c.9.2 1.7.5 2.6.7l-1.3 5.1 3.2.8 1.3-5.3c5.4 1 9.5.6 11.2-4.3 1.4-3.9-.1-6.2-2.9-7.7 2.1-.5 3.6-1.8 4-4.6zm-7.2 10.2c-1 3.9-7.5 1.8-9.7 1.3l1.7-6.9c2.1.5 8.9 1.6 8 5.6zm1-10.3c-.9 3.6-6.4 1.8-8.2 1.3l1.6-6.3c1.8.5 7.5 1.3 6.6 5z"/>
</svg>
